<svg xmlns="http://www.w3.org/2000/svg" id="svg23" version="1.1" viewBox="0 0 209.95 83.37"><defs id="defs4"/><g id="Légende" transform="translate(-47.43 4.99)"><path id="path12" fill="#0870b7" fill-opacity="1" d="M79.77 45.11V88H69.36V45.11h-5.93v-8h5.93v-7.9a14.61 14.61 0 013.47-10c2.58-2.92 6.17-4.39 10.71-4.39H90v8.88h-4.62q-5.61 0-5.61 6v7.45H90v8zM100.08 15h11.12v9.3h-11.12zm.3 22.16h10.41V88h-10.41z" class="cls-3" transform="translate(-11 -14.81)"/><path id="path14" fill="#0870b7" fill-opacity="1" d="M140 88c-4.7 0-8.31-1.44-10.83-4.28a14.54 14.54 0 01-3.36-10v-58.4h10.4v57.75c0 4 1.88 6 5.61 6h4.61V88z" class="cls-3" transform="translate(-11 -14.81)"/><path id="path16" fill="#0870b7" fill-opacity="1" d="M175.37 35.73c6.39 0 11.55 2 15.51 6.13C194.84 45.99 197 52.8 197 62c0 9.2-2 16.13-6.13 20.42a19.94 19.94 0 01-11.33 5.73v-9.7a11.67 11.67 0 003.46-2.21c2.38-2.39 3.56-7.1 3.56-14.2S185.42 50.29 183 48a10.41 10.41 0 00-7.67-3 10.16 10.16 0 00-7.54 3c-2.39 2.31-3.6 7-3.6 14.06 0 7.06 1.21 11.81 3.6 14.2a12.47 12.47 0 003.21 2.13v9.8a20.52 20.52 0 01-11-5.73Q153.83 76 153.84 62q.01-14 6.16-20.14c3.94-4.1 9.08-6.13 15.4-6.13" class="cls-3" transform="translate(-11 -14.81)"/><path id="rect18" fill="#0870b7" fill-opacity="1" d="M192.87.5h10.31v19.49h-10.31z" class="cls-3"/><path id="path20" fill="#0870b7" fill-opacity="1" d="M255.52 48.38a10.72 10.72 0 00-7.75-3.47 9.35 9.35 0 00-7.25 3.17 11.81 11.81 0 00-3.06 8.46V88h-10.41V36.24h10.21v5.62c3-4.15 7.58-6.25 13.77-6.25a16.76 16.76 0 0112.35 4.91z" class="cls-3" transform="translate(-11 -14.81)"/></g></svg>