<?xml version="1.0" encoding="UTF-8"?>
<!DOCTYPE svg PUBLIC "-//W3C//DTD SVG 1.1//EN" "http://www.w3.org/Graphics/SVG/1.1/DTD/svg11.dtd">
<svg xmlns="http://www.w3.org/2000/svg" version="1.1" width="2048px" height="2048px" style="shape-rendering:geometricPrecision; text-rendering:geometricPrecision; image-rendering:optimizeQuality; fill-rule:evenodd; clip-rule:evenodd" xmlns:xlink="http://www.w3.org/1999/xlink">
<g><path style="opacity:1" fill="#007ebb" d="M 206.5,-0.5 C 751.167,-0.5 1295.83,-0.5 1840.5,-0.5C 1922.2,9.72528 1983.03,50.7253 2023,122.5C 2036,148.861 2044.17,176.528 2047.5,205.5C 2047.5,750.833 2047.5,1296.17 2047.5,1841.5C 2038.59,1914.2 2003.93,1971.03 1943.5,2012C 1911.89,2031.92 1877.56,2043.76 1840.5,2047.5C 1295.83,2047.5 751.167,2047.5 206.5,2047.5C 123.808,2037.25 62.6415,1995.58 23,1922.5C 10.5661,1896.71 2.73273,1869.71 -0.5,1841.5C -0.5,1296.17 -0.5,750.833 -0.5,205.5C 8.37873,131.216 44.0454,73.7163 106.5,33C 137.398,14.312 170.731,3.14532 206.5,-0.5 Z"/></g>
<g><path style="opacity:1" fill="#fefefe" d="M 442.5,284.5 C 520.962,279.644 580.795,310.31 622,376.5C 645.624,419.877 651.291,465.543 639,513.5C 614.72,590.061 562.887,634.561 483.5,647C 410.263,651.629 353.096,623.796 312,563.5C 284.51,518.302 277.177,469.968 290,418.5C 313.948,343.042 364.782,298.375 442.5,284.5 Z"/></g>
<g><path style="opacity:1" fill="#fefefe" d="M 1762.5,1120.5 C 1762.5,1334.5 1762.5,1548.5 1762.5,1762.5C 1661.5,1762.5 1560.5,1762.5 1459.5,1762.5C 1459.83,1583 1459.5,1403.67 1458.5,1224.5C 1458.7,1179.32 1448.53,1136.65 1428,1096.5C 1401.44,1051.68 1361.94,1027.85 1309.5,1025C 1201.6,1019.25 1136.1,1069.08 1113,1174.5C 1109.81,1191.02 1107.98,1207.69 1107.5,1224.5C 1106.5,1403.67 1106.17,1583 1106.5,1762.5C 1009.17,1762.5 911.833,1762.5 814.5,1762.5C 814.5,1434.17 814.5,1105.83 814.5,777.5C 911.833,777.5 1009.17,777.5 1106.5,777.5C 1106.33,821.501 1106.5,865.501 1107,909.5C 1107.72,908.956 1108.22,908.289 1108.5,907.5C 1151.37,840.369 1210.37,793.202 1285.5,766C 1338.85,748.442 1393.51,742.775 1449.5,749C 1604.03,765.224 1702.86,847.724 1746,996.5C 1756.58,1037.15 1762.08,1078.48 1762.5,1120.5 Z"/></g>
<g><path style="opacity:1" fill="#4ca1ce" d="M 312.5,776.5 C 414.833,776.5 517.167,776.5 619.5,776.5C 619.5,1105.5 619.5,1434.5 619.5,1763.5C 517.167,1763.5 414.833,1763.5 312.5,1763.5C 312.5,1434.5 312.5,1105.5 312.5,776.5 Z"/></g>
<g><path style="opacity:1" fill="#fefffe" d="M 313.5,777.5 C 415.167,777.5 516.833,777.5 618.5,777.5C 618.5,1105.83 618.5,1434.17 618.5,1762.5C 516.833,1762.5 415.167,1762.5 313.5,1762.5C 313.5,1434.17 313.5,1105.83 313.5,777.5 Z"/></g>
<g><path style="opacity:1" fill="#7fbedc" d="M 1106.5,776.5 C 1106.5,776.833 1106.5,777.167 1106.5,777.5C 1009.17,777.5 911.833,777.5 814.5,777.5C 814.5,1105.83 814.5,1434.17 814.5,1762.5C 911.833,1762.5 1009.17,1762.5 1106.5,1762.5C 1106.17,1583 1106.5,1403.67 1107.5,1224.5C 1107.5,1404.17 1107.5,1583.83 1107.5,1763.5C 1009.5,1763.5 911.5,1763.5 813.5,1763.5C 813.5,1434.5 813.5,1105.5 813.5,776.5C 911.167,776.5 1008.83,776.5 1106.5,776.5 Z"/></g>
<g><path style="opacity:1" fill="#58abd2" d="M 1106.5,776.5 C 1107.17,820.167 1107.83,863.833 1108.5,907.5C 1108.22,908.289 1107.72,908.956 1107,909.5C 1106.5,865.501 1106.33,821.501 1106.5,777.5C 1106.5,777.167 1106.5,776.833 1106.5,776.5 Z"/></g>
<g><path style="opacity:1" fill="#7fbddc" d="M 1762.5,1120.5 C 1763.5,1334.67 1763.83,1549 1763.5,1763.5C 1661.83,1763.5 1560.17,1763.5 1458.5,1763.5C 1458.5,1583.83 1458.5,1404.17 1458.5,1224.5C 1459.5,1403.67 1459.83,1583 1459.5,1762.5C 1560.5,1762.5 1661.5,1762.5 1762.5,1762.5C 1762.5,1548.5 1762.5,1334.5 1762.5,1120.5 Z"/></g>
</svg>
