<?xml version="1.0" standalone="no"?>
<!DOCTYPE svg PUBLIC "-//W3C//DTD SVG 20010904//EN"
 "http://www.w3.org/TR/2001/REC-SVG-20010904/DTD/svg10.dtd">
<svg version="1.0" xmlns="http://www.w3.org/2000/svg"
 width="688.000000pt" height="163.000000pt" viewBox="0 0 688.000000 163.000000"
 preserveAspectRatio="xMidYMid meet">

<g transform="translate(0.000000,163.000000) scale(0.100000,-0.100000)"
fill="#000000" stroke="none">
<path d="M3465 1399 c-72 -11 -185 -63 -242 -113 -211 -184 -225 -547 -29
-754 118 -125 252 -175 406 -151 87 14 140 39 198 93 67 63 95 123 100 215 5
86 -7 135 -51 209 l-31 52 -138 0 -138 0 0 -114 0 -115 52 -3 c42 -2 54 -7 56
-22 5 -26 -15 -36 -78 -36 -139 1 -231 106 -217 249 13 121 106 201 236 201
36 0 81 -4 99 -9 l32 -10 0 144 0 144 -37 10 c-61 15 -154 19 -218 10z"/>
<path d="M100 890 l0 -500 145 0 145 0 0 500 0 500 -145 0 -145 0 0 -500z"/>
<path d="M2630 1313 c-25 -27 -61 -65 -80 -85 l-34 -38 70 0 70 0 90 85 89 84
-80 1 -81 0 -44 -47z"/>
<path d="M849 1130 c-61 -10 -117 -40 -166 -90 -87 -86 -103 -155 -103 -447
l0 -203 135 0 135 0 0 221 c0 133 4 228 10 240 7 13 21 19 45 19 24 0 38 -6
45 -19 6 -12 10 -107 10 -240 l0 -221 135 0 135 0 0 203 c0 111 -5 231 -10
266 -31 189 -184 301 -371 271z"/>
<path d="M1663 1129 c-295 -49 -413 -414 -201 -621 71 -69 179 -97 286 -74
l32 8 0 119 0 119 -46 0 c-59 0 -82 13 -100 57 -20 46 -10 86 28 118 37 31 95
34 129 6 24 -19 24 -23 27 -223 4 -224 -2 -259 -48 -303 -24 -23 -41 -30 -89
-33 -33 -2 -74 0 -90 6 l-31 11 0 -119 0 -119 43 -12 c147 -41 315 18 404 143
65 90 76 140 81 360 4 211 -5 300 -39 378 -40 90 -122 151 -235 175 -76 16
-77 16 -151 4z"/>
<path d="M2528 1129 c-119 -17 -226 -99 -280 -216 -28 -58 -31 -76 -31 -152 1
-118 26 -184 102 -260 31 -31 77 -67 103 -79 117 -54 269 -46 376 20 l32 20
-51 61 c-110 132 -96 120 -121 103 -12 -9 -38 -16 -58 -16 -73 0 -114 58 -114
160 0 105 41 160 119 160 44 0 76 -24 90 -67 6 -22 4 -23 -64 -23 -66 0 -71
-2 -77 -23 -3 -13 -4 -41 -2 -63 l3 -39 202 -3 203 -2 5 23 c10 37 -12 146
-40 203 -15 30 -50 75 -80 103 -85 77 -191 107 -317 90z"/>
<path d="M4260 1130 c-69 -12 -114 -34 -160 -80 -82 -82 -100 -162 -100 -457
l0 -203 134 0 135 0 3 209 c3 192 5 211 23 231 16 17 28 21 62 18 l43 -3 0
138 c0 101 -3 139 -12 142 -33 10 -87 12 -128 5z"/>
<path d="M4768 1129 c-119 -17 -226 -99 -280 -216 -26 -56 -31 -77 -31 -147
-1 -134 49 -237 151 -310 118 -86 303 -93 428 -15 l34 20 -72 87 c-40 48 -73
89 -74 91 -2 1 -13 -4 -26 -13 -12 -9 -38 -16 -58 -16 -73 0 -114 58 -114 160
0 105 41 160 119 160 44 0 76 -24 90 -67 6 -22 4 -23 -64 -23 -66 0 -71 -2
-77 -23 -3 -13 -4 -41 -2 -63 l3 -39 202 -3 203 -2 5 23 c10 37 -12 146 -40
203 -15 30 -50 75 -80 103 -85 77 -191 107 -317 90z"/>
<path d="M5598 1129 c-119 -17 -226 -99 -280 -216 -26 -56 -31 -77 -31 -147
-1 -134 49 -237 151 -310 118 -86 303 -93 428 -15 l34 20 -72 87 c-40 48 -73
89 -74 91 -2 1 -13 -4 -26 -13 -12 -9 -38 -16 -58 -16 -73 0 -114 58 -114 160
0 105 41 160 119 160 44 0 76 -24 90 -67 6 -22 4 -23 -64 -23 -66 0 -71 -2
-77 -23 -3 -13 -4 -41 -2 -63 l3 -39 202 -3 203 -2 5 23 c10 37 -12 146 -40
203 -15 30 -50 75 -80 103 -85 77 -191 107 -317 90z"/>
<path d="M6419 1130 c-61 -10 -117 -40 -166 -90 -87 -86 -103 -155 -103 -447
l0 -203 135 0 135 0 0 221 c0 133 4 228 10 240 7 13 21 19 45 19 24 0 38 -6
45 -19 6 -12 10 -107 10 -240 l0 -221 135 0 135 0 0 203 c0 111 -5 231 -10
266 -31 189 -184 301 -371 271z"/>
</g>
</svg>
